<?xml version="1.0" encoding="UTF-8" standalone="no"?>
<!DOCTYPE svg PUBLIC "-//W3C//DTD SVG 1.1//EN"
 "http://www.w3.org/Graphics/SVG/1.1/DTD/svg11.dtd">
<!-- Generated by graphviz version 2.40.1 (20161225.0304)
 -->
<!-- Title: dependencies Pages: 1 -->
<svg width="1674pt" height="284pt"
 viewBox="0.00 0.00 1674.00 284.00" xmlns="http://www.w3.org/2000/svg" xmlns:xlink="http://www.w3.org/1999/xlink">
<g id="graph0" class="graph" transform="scale(1 1) rotate(0) translate(4 280)">
<title>dependencies</title>
<polygon fill="#ffffff" stroke="transparent" points="-4,4 -4,-280 1670,-280 1670,4 -4,4"/>
<text text-anchor="start" x="812.0091" y="-42.4" font-family="sans-serif" font-weight="bold" font-size="14.00" fill="#000000">Legend</text>
<polygon fill="#ffffb3" stroke="transparent" points="599,-10 599,-30 619,-30 619,-10 599,-10"/>
<text text-anchor="start" x="622.629" y="-15.4" font-family="sans-serif" font-size="14.00" fill="#000000"> &#160;Declarations</text>
<polygon fill="#8dd3c7" stroke="transparent" points="712,-10 712,-30 732,-30 732,-10 712,-10"/>
<text text-anchor="start" x="735.7251" y="-15.4" font-family="sans-serif" font-size="14.00" fill="#000000"> &#160;Module</text>
<polygon fill="#80b1d3" stroke="transparent" points="798,-10 798,-30 818,-30 818,-10 798,-10"/>
<text text-anchor="start" x="821.7812" y="-15.4" font-family="sans-serif" font-size="14.00" fill="#000000"> &#160;Bootstrap</text>
<polygon fill="#fdb462" stroke="transparent" points="895,-10 895,-30 915,-30 915,-10 895,-10"/>
<text text-anchor="start" x="918.6732" y="-15.4" font-family="sans-serif" font-size="14.00" fill="#000000"> &#160;Providers</text>
<polygon fill="#fb8072" stroke="transparent" points="991,-10 991,-30 1011,-30 1011,-10 991,-10"/>
<text text-anchor="start" x="1014.7258" y="-15.4" font-family="sans-serif" font-size="14.00" fill="#000000"> &#160;Exports</text>
<g id="clust1" class="cluster">
<title>cluster_AdminLayoutModule</title>
<polygon fill="none" stroke="#000000" stroke-dasharray="1,5" points="8,-70 8,-260 730,-260 730,-70 8,-70"/>
</g>
<g id="clust2" class="cluster">
<title>cluster_AdminLayoutModule_declarations</title>
<polygon fill="none" stroke="#000000" points="16,-143 16,-195 722,-195 722,-143 16,-143"/>
</g>
<g id="clust3" class="cluster">
<title>cluster_AdminLayoutModule_DashboardComponent_providers</title>
<polygon fill="none" stroke="#000000" points="542,-78 542,-130 722,-130 722,-78 542,-78"/>
</g>
<g id="clust6" class="cluster">
<title>cluster_AdminLayoutModule_TableListComponent_providers</title>
<polygon fill="none" stroke="#000000" points="210,-78 210,-130 380,-130 380,-78 210,-78"/>
</g>
<g id="clust7" class="cluster">
<title>cluster_AdminLayoutModule_UserProfileComponent_providers</title>
<polygon fill="none" stroke="#000000" points="16,-78 16,-130 202,-130 202,-78 16,-78"/>
</g>
<g id="clust12" class="cluster">
<title>cluster_AppModule</title>
<polygon fill="none" stroke="#000000" stroke-dasharray="1,5" points="738,-70 738,-268 1206,-268 1206,-70 738,-70"/>
</g>
<g id="clust13" class="cluster">
<title>cluster_AppModule_declarations</title>
<polygon fill="none" stroke="#000000" points="898,-78 898,-130 1198,-130 1198,-78 898,-78"/>
</g>
<g id="clust16" class="cluster">
<title>cluster_AppModule_imports</title>
<polygon fill="none" stroke="#000000" points="746,-78 746,-130 890,-130 890,-78 746,-78"/>
</g>
<g id="clust18" class="cluster">
<title>cluster_AppModule_bootstrap</title>
<polygon fill="none" stroke="#000000" points="826,-208 826,-260 950,-260 950,-208 826,-208"/>
</g>
<g id="clust26" class="cluster">
<title>cluster_ComponentsModule</title>
<polygon fill="none" stroke="#000000" stroke-dasharray="1,5" points="1214,-70 1214,-268 1658,-268 1658,-70 1214,-70"/>
</g>
<g id="clust27" class="cluster">
<title>cluster_ComponentsModule_declarations</title>
<polygon fill="none" stroke="#000000" points="1228,-78 1228,-130 1644,-130 1644,-78 1228,-78"/>
</g>
<g id="clust32" class="cluster">
<title>cluster_ComponentsModule_exports</title>
<polygon fill="none" stroke="#000000" points="1222,-208 1222,-260 1650,-260 1650,-208 1222,-208"/>
</g>
<!-- DashboardComponent -->
<g id="node1" class="node">
<title>DashboardComponent</title>
<polygon fill="#ffffb3" stroke="#000000" points="713.9734,-187 572.0266,-187 572.0266,-151 713.9734,-151 713.9734,-187"/>
<text text-anchor="middle" x="643" y="-164.8" font-family="Times,serif" font-size="14.00" fill="#000000">DashboardComponent</text>
</g>
<!-- AdminLayoutModule -->
<g id="node6" class="node">
<title>AdminLayoutModule</title>
<polygon fill="#8dd3c7" stroke="#000000" points="449.0954,-252 446.0954,-256 425.0954,-256 422.0954,-252 310.9046,-252 310.9046,-216 449.0954,-216 449.0954,-252"/>
<text text-anchor="middle" x="380" y="-229.8" font-family="Times,serif" font-size="14.00" fill="#000000">AdminLayoutModule</text>
</g>
<!-- DashboardComponent&#45;&gt;AdminLayoutModule -->
<g id="edge1" class="edge">
<title>DashboardComponent&#45;&gt;AdminLayoutModule</title>
<path fill="none" stroke="#000000" d="M643,-187.1061C643,-206.3391 643,-234 643,-234 643,-234 459.1002,-234 459.1002,-234"/>
<polygon fill="#000000" stroke="#000000" points="459.1002,-230.5001 449.1002,-234 459.1001,-237.5001 459.1002,-230.5001"/>
</g>
<!-- GraphComponent -->
<g id="node2" class="node">
<title>GraphComponent</title>
<polygon fill="#ffffb3" stroke="#000000" points="554.3146,-187 437.6854,-187 437.6854,-151 554.3146,-151 554.3146,-187"/>
<text text-anchor="middle" x="496" y="-164.8" font-family="Times,serif" font-size="14.00" fill="#000000">GraphComponent</text>
</g>
<!-- GraphComponent&#45;&gt;AdminLayoutModule -->
<g id="edge3" class="edge">
<title>GraphComponent&#45;&gt;AdminLayoutModule</title>
<path fill="none" stroke="#000000" d="M443.4453,-187.1061C443.4453,-187.1061 443.4453,-205.991 443.4453,-205.991"/>
<polygon fill="#000000" stroke="#000000" points="439.9454,-205.9909 443.4453,-215.991 446.9454,-205.991 439.9454,-205.9909"/>
</g>
<!-- SearchPipe -->
<g id="node3" class="node">
<title>SearchPipe</title>
<polygon fill="#ffffb3" stroke="#000000" points="419.4748,-187 340.5252,-187 340.5252,-151 419.4748,-151 419.4748,-187"/>
<text text-anchor="middle" x="380" y="-164.8" font-family="Times,serif" font-size="14.00" fill="#000000">SearchPipe</text>
</g>
<!-- SearchPipe&#45;&gt;AdminLayoutModule -->
<g id="edge4" class="edge">
<title>SearchPipe&#45;&gt;AdminLayoutModule</title>
<path fill="none" stroke="#000000" d="M380,-187.1061C380,-187.1061 380,-205.991 380,-205.991"/>
<polygon fill="#000000" stroke="#000000" points="376.5001,-205.9909 380,-215.991 383.5001,-205.991 376.5001,-205.9909"/>
</g>
<!-- TableListComponent -->
<g id="node4" class="node">
<title>TableListComponent</title>
<polygon fill="#ffffb3" stroke="#000000" points="322.4832,-187 187.5168,-187 187.5168,-151 322.4832,-151 322.4832,-187"/>
<text text-anchor="middle" x="255" y="-164.8" font-family="Times,serif" font-size="14.00" fill="#000000">TableListComponent</text>
</g>
<!-- TableListComponent&#45;&gt;AdminLayoutModule -->
<g id="edge5" class="edge">
<title>TableListComponent&#45;&gt;AdminLayoutModule</title>
<path fill="none" stroke="#000000" d="M316.722,-187.1061C316.722,-187.1061 316.722,-205.991 316.722,-205.991"/>
<polygon fill="#000000" stroke="#000000" points="313.222,-205.9909 316.722,-215.991 320.222,-205.991 313.222,-205.9909"/>
</g>
<!-- UserProfileComponent -->
<g id="node5" class="node">
<title>UserProfileComponent</title>
<polygon fill="#ffffb3" stroke="#000000" points="169.8585,-187 24.1415,-187 24.1415,-151 169.8585,-151 169.8585,-187"/>
<text text-anchor="middle" x="97" y="-164.8" font-family="Times,serif" font-size="14.00" fill="#000000">UserProfileComponent</text>
</g>
<!-- UserProfileComponent&#45;&gt;AdminLayoutModule -->
<g id="edge7" class="edge">
<title>UserProfileComponent&#45;&gt;AdminLayoutModule</title>
<path fill="none" stroke="#000000" d="M97,-187.1061C97,-206.3391 97,-234 97,-234 97,-234 300.7704,-234 300.7704,-234"/>
<polygon fill="#000000" stroke="#000000" points="300.7704,-237.5001 310.7704,-234 300.7704,-230.5001 300.7704,-237.5001"/>
</g>
<!-- DashboardService -->
<g id="node7" class="node">
<title>DashboardService</title>
<ellipse fill="#fdb462" stroke="#000000" cx="632" cy="-104" rx="81.6423" ry="18"/>
<text text-anchor="middle" x="632" y="-99.8" font-family="Times,serif" font-size="14.00" fill="#000000">DashboardService</text>
</g>
<!-- DashboardService&#45;&gt;DashboardComponent -->
<g id="edge2" class="edge">
<title>DashboardService&#45;&gt;DashboardComponent</title>
<path fill="none" stroke="#000000" d="M642.9171,-122.1061C642.9171,-122.1061 642.9171,-140.991 642.9171,-140.991"/>
<polygon fill="#000000" stroke="#000000" points="639.4172,-140.9909 642.9171,-150.991 646.4172,-140.991 639.4172,-140.9909"/>
</g>
<!-- AppModule -->
<g id="node12" class="node">
<title>AppModule</title>
<polygon fill="#8dd3c7" stroke="#000000" points="929.6571,-187 926.6571,-191 905.6571,-191 902.6571,-187 846.3429,-187 846.3429,-151 929.6571,-151 929.6571,-187"/>
<text text-anchor="middle" x="888" y="-164.8" font-family="Times,serif" font-size="14.00" fill="#000000">AppModule</text>
</g>
<!-- DashboardService&#45;&gt;AppModule -->
<g id="edge13" class="edge">
<title>DashboardService&#45;&gt;AppModule</title>
<path fill="none" stroke="#000000" d="M714.1718,-104C725.7473,-104 733.7998,-104 733.7998,-104 733.7998,-104 733.7998,-169 733.7998,-169 733.7998,-169 836.2712,-169 836.2712,-169"/>
<polygon fill="#000000" stroke="#000000" points="836.2712,-172.5001 846.2712,-169 836.2712,-165.5001 836.2712,-172.5001"/>
</g>
<!-- TableListService -->
<g id="node8" class="node">
<title>TableListService</title>
<ellipse fill="#fdb462" stroke="#000000" cx="295" cy="-104" rx="76.9985" ry="18"/>
<text text-anchor="middle" x="295" y="-99.8" font-family="Times,serif" font-size="14.00" fill="#000000">TableListService</text>
</g>
<!-- TableListService&#45;&gt;TableListComponent -->
<g id="edge6" class="edge">
<title>TableListService&#45;&gt;TableListComponent</title>
<path fill="none" stroke="#000000" d="M270.2462,-121.078C270.2462,-121.078 270.2462,-140.8993 270.2462,-140.8993"/>
<polygon fill="#000000" stroke="#000000" points="266.7463,-140.8992 270.2462,-150.8993 273.7463,-140.8993 266.7463,-140.8992"/>
</g>
<!-- UserProfileService -->
<g id="node9" class="node">
<title>UserProfileService</title>
<ellipse fill="#fdb462" stroke="#000000" cx="109" cy="-104" rx="84.5015" ry="18"/>
<text text-anchor="middle" x="109" y="-99.8" font-family="Times,serif" font-size="14.00" fill="#000000">UserProfileService</text>
</g>
<!-- UserProfileService&#45;&gt;UserProfileComponent -->
<g id="edge8" class="edge">
<title>UserProfileService&#45;&gt;UserProfileComponent</title>
<path fill="none" stroke="#000000" d="M97.2142,-122.1061C97.2142,-122.1061 97.2142,-140.991 97.2142,-140.991"/>
<polygon fill="#000000" stroke="#000000" points="93.7143,-140.9909 97.2142,-150.991 100.7143,-140.991 93.7143,-140.9909"/>
</g>
<!-- AdminLayoutComponent -->
<g id="node10" class="node">
<title>AdminLayoutComponent</title>
<polygon fill="#ffffb3" stroke="#000000" points="1189.878,-122 1030.122,-122 1030.122,-86 1189.878,-86 1189.878,-122"/>
<text text-anchor="middle" x="1110" y="-99.8" font-family="Times,serif" font-size="14.00" fill="#000000">AdminLayoutComponent</text>
</g>
<!-- AdminLayoutComponent&#45;&gt;AppModule -->
<g id="edge9" class="edge">
<title>AdminLayoutComponent&#45;&gt;AppModule</title>
<path fill="none" stroke="#000000" d="M1110,-122.027C1110,-138.3976 1110,-160 1110,-160 1110,-160 939.7565,-160 939.7565,-160"/>
<polygon fill="#000000" stroke="#000000" points="939.7565,-156.5001 929.7565,-160 939.7565,-163.5001 939.7565,-156.5001"/>
</g>
<!-- AppComponent -->
<g id="node11" class="node">
<title>AppComponent</title>
<polygon fill="#ffffb3" stroke="#000000" points="1011.9399,-122 906.0601,-122 906.0601,-86 1011.9399,-86 1011.9399,-122"/>
<text text-anchor="middle" x="959" y="-99.8" font-family="Times,serif" font-size="14.00" fill="#000000">AppComponent</text>
</g>
<!-- AppComponent&#45;&gt;AppModule -->
<g id="edge10" class="edge">
<title>AppComponent&#45;&gt;AppModule</title>
<path fill="none" stroke="#000000" d="M918.0544,-122.1061C918.0544,-122.1061 918.0544,-140.991 918.0544,-140.991"/>
<polygon fill="#000000" stroke="#000000" points="914.5544,-140.9909 918.0544,-150.991 921.5544,-140.991 914.5544,-140.9909"/>
</g>
<!-- AppComponent  -->
<g id="node14" class="node">
<title>AppComponent </title>
<polygon fill="#80b1d3" stroke="#000000" points="942.439,-252 833.561,-252 833.561,-216 942.439,-216 942.439,-252"/>
<text text-anchor="middle" x="888" y="-229.8" font-family="Times,serif" font-size="14.00" fill="#000000">AppComponent </text>
</g>
<!-- AppModule&#45;&gt;AppComponent  -->
<g id="edge12" class="edge">
<title>AppModule&#45;&gt;AppComponent </title>
<path fill="none" stroke="#000000" stroke-dasharray="1,5" d="M888,-187.1061C888,-187.1061 888,-205.991 888,-205.991"/>
<polygon fill="#000000" stroke="#000000" points="884.5001,-205.9909 888,-215.991 891.5001,-205.991 884.5001,-205.9909"/>
</g>
<!-- AppRoutingModule -->
<g id="node13" class="node">
<title>AppRoutingModule</title>
<polygon fill="#8dd3c7" stroke="#000000" points="882.2744,-122 879.2744,-126 858.2744,-126 855.2744,-122 753.7256,-122 753.7256,-86 882.2744,-86 882.2744,-122"/>
<text text-anchor="middle" x="818" y="-99.8" font-family="Times,serif" font-size="14.00" fill="#000000">AppRoutingModule</text>
</g>
<!-- AppRoutingModule&#45;&gt;AppModule -->
<g id="edge11" class="edge">
<title>AppRoutingModule&#45;&gt;AppModule</title>
<path fill="none" stroke="#000000" d="M864.2795,-122.1061C864.2795,-122.1061 864.2795,-140.991 864.2795,-140.991"/>
<polygon fill="#000000" stroke="#000000" points="860.7795,-140.9909 864.2795,-150.991 867.7795,-140.991 860.7795,-140.9909"/>
</g>
<!-- FooterComponent -->
<g id="node15" class="node">
<title>FooterComponent</title>
<polygon fill="#ffffb3" stroke="#000000" points="1635.8809,-122 1518.1191,-122 1518.1191,-86 1635.8809,-86 1635.8809,-122"/>
<text text-anchor="middle" x="1577" y="-99.8" font-family="Times,serif" font-size="14.00" fill="#000000">FooterComponent</text>
</g>
<!-- ComponentsModule -->
<g id="node18" class="node">
<title>ComponentsModule</title>
<polygon fill="#8dd3c7" stroke="#000000" points="1504.3272,-187 1501.3272,-191 1480.3272,-191 1477.3272,-187 1373.6728,-187 1373.6728,-151 1504.3272,-151 1504.3272,-187"/>
<text text-anchor="middle" x="1439" y="-164.8" font-family="Times,serif" font-size="14.00" fill="#000000">ComponentsModule</text>
</g>
<!-- FooterComponent&#45;&gt;ComponentsModule -->
<g id="edge14" class="edge">
<title>FooterComponent&#45;&gt;ComponentsModule</title>
<path fill="none" stroke="#000000" d="M1597.3968,-122.0225C1597.3968,-139.3734 1597.3968,-163 1597.3968,-163 1597.3968,-163 1514.3405,-163 1514.3405,-163"/>
<polygon fill="#000000" stroke="#000000" points="1514.3406,-159.5001 1504.3405,-163 1514.3405,-166.5001 1514.3406,-159.5001"/>
</g>
<!-- NavbarComponent -->
<g id="node16" class="node">
<title>NavbarComponent</title>
<polygon fill="#ffffb3" stroke="#000000" points="1500.0297,-122 1377.9703,-122 1377.9703,-86 1500.0297,-86 1500.0297,-122"/>
<text text-anchor="middle" x="1439" y="-99.8" font-family="Times,serif" font-size="14.00" fill="#000000">NavbarComponent</text>
</g>
<!-- NavbarComponent&#45;&gt;ComponentsModule -->
<g id="edge15" class="edge">
<title>NavbarComponent&#45;&gt;ComponentsModule</title>
<path fill="none" stroke="#000000" d="M1439,-122.1061C1439,-122.1061 1439,-140.991 1439,-140.991"/>
<polygon fill="#000000" stroke="#000000" points="1435.5001,-140.9909 1439,-150.991 1442.5001,-140.991 1435.5001,-140.9909"/>
</g>
<!-- SidebarComponent -->
<g id="node17" class="node">
<title>SidebarComponent</title>
<polygon fill="#ffffb3" stroke="#000000" points="1360.0954,-122 1235.9046,-122 1235.9046,-86 1360.0954,-86 1360.0954,-122"/>
<text text-anchor="middle" x="1298" y="-99.8" font-family="Times,serif" font-size="14.00" fill="#000000">SidebarComponent</text>
</g>
<!-- SidebarComponent&#45;&gt;ComponentsModule -->
<g id="edge16" class="edge">
<title>SidebarComponent&#45;&gt;ComponentsModule</title>
<path fill="none" stroke="#000000" d="M1317.1826,-122.1061C1317.1826,-141.3391 1317.1826,-169 1317.1826,-169 1317.1826,-169 1363.8118,-169 1363.8118,-169"/>
<polygon fill="#000000" stroke="#000000" points="1363.8118,-172.5001 1373.8118,-169 1363.8117,-165.5001 1363.8118,-172.5001"/>
</g>
<!-- FooterComponent  -->
<g id="node19" class="node">
<title>FooterComponent </title>
<polygon fill="#fb8072" stroke="#000000" points="1641.8814,-252 1520.1186,-252 1520.1186,-216 1641.8814,-216 1641.8814,-252"/>
<text text-anchor="middle" x="1581" y="-229.8" font-family="Times,serif" font-size="14.00" fill="#000000">FooterComponent </text>
</g>
<!-- ComponentsModule&#45;&gt;FooterComponent  -->
<g id="edge17" class="edge">
<title>ComponentsModule&#45;&gt;FooterComponent </title>
<path fill="none" stroke="#000000" stroke-dasharray="5,2" d="M1504.1876,-175C1532.2984,-175 1558.8532,-175 1558.8532,-175 1558.8532,-175 1558.8532,-205.9775 1558.8532,-205.9775"/>
<polygon fill="#000000" stroke="#000000" points="1555.3533,-205.9774 1558.8532,-215.9775 1562.3533,-205.9775 1555.3533,-205.9774"/>
</g>
<!-- NavbarComponent  -->
<g id="node20" class="node">
<title>NavbarComponent </title>
<polygon fill="#fb8072" stroke="#000000" points="1502.0288,-252 1375.9712,-252 1375.9712,-216 1502.0288,-216 1502.0288,-252"/>
<text text-anchor="middle" x="1439" y="-229.8" font-family="Times,serif" font-size="14.00" fill="#000000">NavbarComponent </text>
</g>
<!-- ComponentsModule&#45;&gt;NavbarComponent  -->
<g id="edge18" class="edge">
<title>ComponentsModule&#45;&gt;NavbarComponent </title>
<path fill="none" stroke="#000000" stroke-dasharray="5,2" d="M1439,-187.1061C1439,-187.1061 1439,-205.991 1439,-205.991"/>
<polygon fill="#000000" stroke="#000000" points="1435.5001,-205.9909 1439,-215.991 1442.5001,-205.991 1435.5001,-205.9909"/>
</g>
<!-- SidebarComponent  -->
<g id="node21" class="node">
<title>SidebarComponent </title>
<polygon fill="#fb8072" stroke="#000000" points="1357.596,-252 1230.404,-252 1230.404,-216 1357.596,-216 1357.596,-252"/>
<text text-anchor="middle" x="1294" y="-229.8" font-family="Times,serif" font-size="14.00" fill="#000000">SidebarComponent </text>
</g>
<!-- ComponentsModule&#45;&gt;SidebarComponent  -->
<g id="edge19" class="edge">
<title>ComponentsModule&#45;&gt;SidebarComponent </title>
<path fill="none" stroke="#000000" stroke-dasharray="5,2" d="M1373.4007,-178C1328.3196,-178 1276.5674,-178 1276.5674,-178 1276.5674,-178 1276.5674,-205.973 1276.5674,-205.973"/>
<polygon fill="#000000" stroke="#000000" points="1273.0675,-205.973 1276.5674,-215.973 1280.0675,-205.973 1273.0675,-205.973"/>
</g>
</g>
</svg>
